<svg width="41" height="48" viewBox="0 0 41 48" fill="none" xmlns="http://www.w3.org/2000/svg">
<g id="type=now, status=default">
<circle id="Ellipse 6" cx="20" cy="24" r="20" fill="#FFE0D9"/>
<path id="Vector" d="M34.1667 25.0208C33.5833 24.6875 32.9792 24.4167 32.375 24.1875C32.9792 23.9583 33.5833 23.6875 34.1667 23.3542C38.1667 21.0417 40.3958 16.8542 40.4167 12.5417C38.5208 11.4583 36.3542 10.875 34.1458 10.875C32.0208 10.875 29.875 11.4167 27.9167 12.5417C27.3333 12.875 26.7917 13.2708 26.2917 13.6667C26.3958 13.0208 26.4583 12.3542 26.4583 11.6875C26.4583 7.0625 23.9375 3.04167 20.2083 0.875C16.4792 3.04167 13.9583 7.0625 13.9583 11.6875C13.9583 12.3542 14.0208 13.0208 14.125 13.6667C13.625 13.25 13.0833 12.8542 12.5 12.5208C10.5417 11.3958 8.39583 10.8542 6.27083 10.8542C4.08333 10.8542 1.89583 11.4375 0 12.5208C0 16.8333 2.22917 21.0208 6.25 23.3333C6.83333 23.6667 7.4375 23.9375 8.04167 24.1667C7.4375 24.3958 6.83333 24.6667 6.25 25C2.25 27.3125 0.0208333 31.5 0 35.8125C1.89583 36.8958 4.0625 37.4792 6.27083 37.4792C8.39583 37.4792 10.5417 36.9375 12.5 35.8125C13.0833 35.4792 13.625 35.0833 14.125 34.6875C14.0208 35.3542 13.9583 36.0208 13.9583 36.6875C13.9583 41.3125 16.4792 45.3333 20.2083 47.5C23.9375 45.3333 26.4583 41.3125 26.4583 36.6875C26.4583 36.0208 26.3958 35.3542 26.2917 34.7083C26.7917 35.125 27.3333 35.5 27.9167 35.8333C29.875 36.9583 32.0208 37.5 34.1458 37.5C36.3333 37.5 38.5208 36.9167 40.4167 35.8333C40.3958 31.5208 38.1667 27.3333 34.1667 25.0208ZM28.875 16.9375C29.3125 16.5833 29.6667 16.3333 30 16.1667C31.2708 15.4375 32.7083 15.0417 34.1667 15.0417C34.7292 15.0417 35.2708 15.1042 35.8125 15.2083C35.1667 17.1042 33.8542 18.7292 32.1042 19.75C31.75 19.9583 31.3542 20.125 30.8958 20.3125L28.0208 21.3958C27.6667 20.4375 27.1667 19.5833 26.5208 18.8125L28.875 16.9375ZM20.2083 6.20833C21.5208 7.70833 22.2917 9.66667 22.2917 11.6875C22.2917 12.0833 22.25 12.5417 22.1875 13L21.7083 16C21.2083 15.9167 20.7083 15.8542 20.2083 15.8542C19.7083 15.8542 19.2083 15.9167 18.7292 16L18.25 13C18.1667 12.5417 18.125 12.0833 18.125 11.6875C18.125 9.64583 18.8958 7.70833 20.2083 6.20833ZM4.60417 15.1875C5.14583 15.0625 5.70833 15.0208 6.27083 15.0208C7.70833 15.0208 9.14583 15.3958 10.4167 16.1458C10.7292 16.3333 11.0833 16.5625 11.4375 16.875L13.8333 18.875C13.2083 19.625 12.7292 20.4583 12.375 21.375L9.5 20.2917C9.0625 20.1042 8.66667 19.9167 8.33333 19.7292C6.52083 18.6875 5.22917 17.0833 4.60417 15.1875ZM11.5417 31.4167C11.1042 31.7708 10.75 32.0208 10.4167 32.1875C9.14583 32.9167 7.70833 33.3125 6.25 33.3125C5.6875 33.3125 5.14583 33.25 4.60417 33.1458C5.25 31.25 6.5625 29.625 8.3125 28.6042C8.66667 28.3958 9.0625 28.2292 9.52083 28.0417L12.3958 26.9583C12.7292 27.9167 13.25 28.7917 13.8958 29.5417L11.5417 31.4167ZM20.2083 42.1667C18.8958 40.6667 18.125 38.7083 18.125 36.6875C18.125 36.2708 18.1667 35.8333 18.25 35.3333L18.7083 32.375C19.1875 32.4583 19.6875 32.5208 20.2083 32.5208C20.7083 32.5208 21.2083 32.4583 21.6875 32.375L22.1667 35.375C22.25 35.8333 22.2917 36.2917 22.2917 36.6875C22.2917 38.7292 21.5208 40.6667 20.2083 42.1667ZM34.1458 33.3333C32.7083 33.3333 31.2708 32.9583 30 32.2083C29.625 32 29.2917 31.75 28.9792 31.5L26.5833 29.5C27.2083 28.75 27.7083 27.9167 28.0417 26.9792L30.9167 28.0625C31.375 28.2292 31.7708 28.4167 32.1042 28.6042C33.875 29.625 35.1667 31.25 35.8125 33.1458C35.25 33.2917 34.6875 33.3333 34.1458 33.3333Z" fill="#CF5C48"/>
</g>
</svg>
