<svg width="41" height="47" viewBox="0 0 41 47" fill="none" xmlns="http://www.w3.org/2000/svg">
<g id="type=hover, status=hover">
<g id="Ellipse 6">
<circle cx="20" cy="23" r="20" fill="#FFD8CF"/>
<circle cx="20" cy="23" r="20" fill="white" fill-opacity="0.2"/>
</g>
<path id="Vector" d="M34.1667 24.1458C33.5833 23.8125 32.9792 23.5417 32.375 23.3125C32.9792 23.0833 33.5833 22.8125 34.1667 22.4792C38.1667 20.1667 40.3958 15.9792 40.4167 11.6667C38.5208 10.5833 36.3542 10 34.1458 10C32.0208 10 29.875 10.5417 27.9167 11.6667C27.3333 12 26.7917 12.3958 26.2917 12.7917C26.3958 12.1458 26.4583 11.4792 26.4583 10.8125C26.4583 6.1875 23.9375 2.16667 20.2083 0C16.4792 2.16667 13.9583 6.1875 13.9583 10.8125C13.9583 11.4792 14.0208 12.1458 14.125 12.7917C13.625 12.375 13.0833 11.9792 12.5 11.6458C10.5417 10.5208 8.39583 9.97917 6.27083 9.97917C4.08333 9.97917 1.89583 10.5625 0 11.6458C0 15.9583 2.22917 20.1458 6.25 22.4583C6.83333 22.7917 7.4375 23.0625 8.04167 23.2917C7.4375 23.5208 6.83333 23.7917 6.25 24.125C2.25 26.4375 0.0208333 30.625 0 34.9375C1.89583 36.0208 4.0625 36.6042 6.27083 36.6042C8.39583 36.6042 10.5417 36.0625 12.5 34.9375C13.0833 34.6042 13.625 34.2083 14.125 33.8125C14.0208 34.4792 13.9583 35.1458 13.9583 35.8125C13.9583 40.4375 16.4792 44.4583 20.2083 46.625C23.9375 44.4583 26.4583 40.4375 26.4583 35.8125C26.4583 35.1458 26.3958 34.4792 26.2917 33.8333C26.7917 34.25 27.3333 34.625 27.9167 34.9583C29.875 36.0833 32.0208 36.625 34.1458 36.625C36.3333 36.625 38.5208 36.0417 40.4167 34.9583C40.3958 30.6458 38.1667 26.4583 34.1667 24.1458ZM28.875 16.0625C29.3125 15.7083 29.6667 15.4583 30 15.2917C31.2708 14.5625 32.7083 14.1667 34.1667 14.1667C34.7292 14.1667 35.2708 14.2292 35.8125 14.3333C35.1667 16.2292 33.8542 17.8542 32.1042 18.875C31.75 19.0833 31.3542 19.25 30.8958 19.4375L28.0208 20.5208C27.6667 19.5625 27.1667 18.7083 26.5208 17.9375L28.875 16.0625ZM20.2083 5.33333C21.5208 6.83333 22.2917 8.79167 22.2917 10.8125C22.2917 11.2083 22.25 11.6667 22.1875 12.125L21.7083 15.125C21.2083 15.0417 20.7083 14.9792 20.2083 14.9792C19.7083 14.9792 19.2083 15.0417 18.7292 15.125L18.25 12.125C18.1667 11.6667 18.125 11.2083 18.125 10.8125C18.125 8.77083 18.8958 6.83333 20.2083 5.33333ZM4.60417 14.3125C5.14583 14.1875 5.70833 14.1458 6.27083 14.1458C7.70833 14.1458 9.14583 14.5208 10.4167 15.2708C10.7292 15.4583 11.0833 15.6875 11.4375 16L13.8333 18C13.2083 18.75 12.7292 19.5833 12.375 20.5L9.5 19.4167C9.0625 19.2292 8.66667 19.0417 8.33333 18.8542C6.52083 17.8125 5.22917 16.2083 4.60417 14.3125ZM11.5417 30.5417C11.1042 30.8958 10.75 31.1458 10.4167 31.3125C9.14583 32.0417 7.70833 32.4375 6.25 32.4375C5.6875 32.4375 5.14583 32.375 4.60417 32.2708C5.25 30.375 6.5625 28.75 8.3125 27.7292C8.66667 27.5208 9.0625 27.3542 9.52083 27.1667L12.3958 26.0833C12.7292 27.0417 13.25 27.9167 13.8958 28.6667L11.5417 30.5417ZM20.2083 41.2917C18.8958 39.7917 18.125 37.8333 18.125 35.8125C18.125 35.3958 18.1667 34.9583 18.25 34.4583L18.7083 31.5C19.1875 31.5833 19.6875 31.6458 20.2083 31.6458C20.7083 31.6458 21.2083 31.5833 21.6875 31.5L22.1667 34.5C22.25 34.9583 22.2917 35.4167 22.2917 35.8125C22.2917 37.8542 21.5208 39.7917 20.2083 41.2917ZM34.1458 32.4583C32.7083 32.4583 31.2708 32.0833 30 31.3333C29.625 31.125 29.2917 30.875 28.9792 30.625L26.5833 28.625C27.2083 27.875 27.7083 27.0417 28.0417 26.1042L30.9167 27.1875C31.375 27.3542 31.7708 27.5417 32.1042 27.7292C33.875 28.75 35.1667 30.375 35.8125 32.2708C35.25 32.4167 34.6875 32.4583 34.1458 32.4583Z" fill="#CF5C48"/>
</g>
</svg>
