<svg width="80" height="80" viewBox="0 0 80 80" fill="none" xmlns="http://www.w3.org/2000/svg">
<g id="filter_vintage">
<path id="Vector" d="M62.3333 41.3326C61.4 40.7992 60.4333 40.3659 59.4666 39.9992C60.4333 39.6326 61.4 39.1992 62.3333 38.6659C68.7333 34.9659 72.3 28.2659 72.3333 21.3659C69.3 19.6326 65.8333 18.6992 62.3 18.6992C58.9 18.6992 55.4666 19.5659 52.3333 21.3659C51.4 21.8992 50.5333 22.5326 49.7333 23.1659C49.9 22.1326 50 21.0659 50 19.9992C50 12.5992 45.9666 6.16589 40 2.69922C34.0333 6.16589 30 12.5992 30 19.9992C30 21.0659 30.1 22.1326 30.2666 23.1659C29.4666 22.4992 28.6 21.8659 27.6666 21.3326C24.5333 19.5326 21.1 18.6659 17.7 18.6659C14.2 18.6659 10.7 19.5992 7.66663 21.3326C7.66663 28.2326 11.2333 34.9326 17.6666 38.6326C18.6 39.1659 19.5666 39.5992 20.5333 39.9659C19.5666 40.3326 18.6 40.7659 17.6666 41.2992C11.2666 44.9992 7.69996 51.6992 7.66663 58.5992C10.7 60.3326 14.1666 61.2659 17.7 61.2659C21.1 61.2659 24.5333 60.3992 27.6666 58.5992C28.6 58.0659 29.4666 57.4326 30.2666 56.7992C30.1 57.8659 30 58.9326 30 59.9992C30 67.3992 34.0333 73.8326 40 77.2992C45.9666 73.8326 50 67.3992 50 59.9992C50 58.9326 49.9 57.8659 49.7333 56.8326C50.5333 57.4992 51.4 58.0992 52.3333 58.6326C55.4666 60.4326 58.9 61.2992 62.3 61.2992C65.8 61.2992 69.3 60.3659 72.3333 58.6326C72.3 51.7326 68.7333 45.0326 62.3333 41.3326ZM53.8666 28.3992C54.5666 27.8326 55.1333 27.4326 55.6666 27.1659C57.7 25.9992 60 25.3659 62.3333 25.3659C63.2333 25.3659 64.1 25.4659 64.9666 25.6326C63.9333 28.6659 61.8333 31.2659 59.0333 32.8992C58.4666 33.2326 57.8333 33.4992 57.1 33.7992L52.5 35.5326C51.9333 33.9992 51.1333 32.6326 50.1 31.3992L53.8666 28.3992ZM40 11.2326C42.1 13.6326 43.3333 16.7659 43.3333 19.9992C43.3333 20.6326 43.2666 21.3659 43.1666 22.0992L42.4 26.8992C41.6 26.7659 40.8 26.6659 40 26.6659C39.2 26.6659 38.4 26.7659 37.6333 26.8992L36.8666 22.0992C36.7333 21.3659 36.6666 20.6326 36.6666 19.9992C36.6666 16.7326 37.9 13.6326 40 11.2326ZM15.0333 25.5992C15.9 25.3992 16.8 25.3326 17.7 25.3326C20 25.3326 22.3 25.9326 24.3333 27.1326C24.8333 27.4326 25.4 27.7992 25.9666 28.2992L29.8 31.4992C28.8 32.6992 28.0333 34.0326 27.4666 35.4992L22.8666 33.7659C22.1666 33.4659 21.5333 33.1659 21 32.8659C18.1 31.1992 16.0333 28.6326 15.0333 25.5992ZM26.1333 51.5659C25.4333 52.1326 24.8666 52.5326 24.3333 52.7992C22.3 53.9659 20 54.5992 17.6666 54.5992C16.7666 54.5992 15.9 54.4992 15.0333 54.3326C16.0666 51.2992 18.1666 48.6992 20.9666 47.0659C21.5333 46.7326 22.1666 46.4659 22.9 46.1659L27.5 44.4326C28.0333 45.9659 28.8666 47.3659 29.9 48.5659L26.1333 51.5659ZM40 68.7659C37.9 66.3659 36.6666 63.2326 36.6666 59.9992C36.6666 59.3326 36.7333 58.6326 36.8666 57.8326L37.6 53.0992C38.3666 53.2326 39.1666 53.3326 40 53.3326C40.8 53.3326 41.6 53.2326 42.3666 53.0992L43.1333 57.8992C43.2666 58.6326 43.3333 59.3659 43.3333 59.9992C43.3333 63.2659 42.1 66.3659 40 68.7659ZM62.3 54.6326C60 54.6326 57.7 54.0326 55.6666 52.8326C55.0666 52.4992 54.5333 52.0992 54.0333 51.6992L50.2 48.4992C51.2 47.2992 52 45.9659 52.5333 44.4659L57.1333 46.1992C57.8666 46.4659 58.5 46.7659 59.0333 47.0659C61.8666 48.6992 63.9333 51.2992 64.9666 54.3326C64.0666 54.5659 63.1666 54.6326 62.3 54.6326Z" fill="#EF897D"/>
</g>
</svg>
