<svg width="80" height="81" viewBox="0 0 80 81" fill="none" xmlns="http://www.w3.org/2000/svg">
<path d="M62.3337 41.8326C61.4003 41.2992 60.4337 40.8659 59.467 40.4992C60.4337 40.1326 61.4003 39.6992 62.3337 39.1659C68.7337 35.4659 72.3003 28.7659 72.3337 21.8659C69.3003 20.1326 65.8337 19.1992 62.3003 19.1992C58.9003 19.1992 55.467 20.0659 52.3337 21.8659C51.4003 22.3992 50.5337 23.0326 49.7337 23.6659C49.9003 22.6326 50.0003 21.5659 50.0003 20.4992C50.0003 13.0992 45.967 6.66589 40.0003 3.19922C34.0337 6.66589 30.0003 13.0992 30.0003 20.4992C30.0003 21.5659 30.1003 22.6326 30.267 23.6659C29.467 22.9992 28.6003 22.3659 27.667 21.8326C24.5337 20.0326 21.1003 19.1659 17.7003 19.1659C14.2003 19.1659 10.7003 20.0992 7.66699 21.8326C7.66699 28.7326 11.2337 35.4326 17.667 39.1326C18.6003 39.6659 19.567 40.0992 20.5337 40.4659C19.567 40.8326 18.6003 41.2659 17.667 41.7992C11.267 45.4992 7.70033 52.1992 7.66699 59.0992C10.7003 60.8326 14.167 61.7659 17.7003 61.7659C21.1003 61.7659 24.5337 60.8992 27.667 59.0992C28.6003 58.5659 29.467 57.9326 30.267 57.2992C30.1003 58.3659 30.0003 59.4326 30.0003 60.4992C30.0003 67.8992 34.0337 74.3326 40.0003 77.7992C45.967 74.3326 50.0003 67.8992 50.0003 60.4992C50.0003 59.4326 49.9003 58.3659 49.7337 57.3326C50.5337 57.9992 51.4003 58.5992 52.3337 59.1326C55.467 60.9326 58.9003 61.7992 62.3003 61.7992C65.8003 61.7992 69.3003 60.8659 72.3337 59.1326C72.3003 52.2326 68.7337 45.5326 62.3337 41.8326ZM53.867 28.8992C54.567 28.3326 55.1337 27.9326 55.667 27.6659C57.7003 26.4992 60.0003 25.8659 62.3337 25.8659C63.2337 25.8659 64.1003 25.9659 64.967 26.1326C63.9337 29.1659 61.8337 31.7659 59.0337 33.3992C58.467 33.7326 57.8337 33.9992 57.1003 34.2992L52.5003 36.0326C51.9337 34.4992 51.1337 33.1326 50.1003 31.8992L53.867 28.8992ZM40.0003 11.7326C42.1003 14.1326 43.3337 17.2659 43.3337 20.4992C43.3337 21.1326 43.267 21.8659 43.167 22.5992L42.4003 27.3992C41.6003 27.2659 40.8003 27.1659 40.0003 27.1659C39.2003 27.1659 38.4003 27.2659 37.6337 27.3992L36.867 22.5992C36.7337 21.8659 36.667 21.1326 36.667 20.4992C36.667 17.2326 37.9003 14.1326 40.0003 11.7326ZM15.0337 26.0992C15.9003 25.8992 16.8003 25.8326 17.7003 25.8326C20.0003 25.8326 22.3003 26.4326 24.3337 27.6326C24.8337 27.9326 25.4003 28.2992 25.967 28.7992L29.8003 31.9992C28.8003 33.1992 28.0337 34.5326 27.467 35.9992L22.867 34.2659C22.167 33.9659 21.5337 33.6659 21.0003 33.3659C18.1003 31.6992 16.0337 29.1326 15.0337 26.0992ZM26.1337 52.0659C25.4337 52.6326 24.867 53.0326 24.3337 53.2992C22.3003 54.4659 20.0003 55.0992 17.667 55.0992C16.767 55.0992 15.9003 54.9992 15.0337 54.8326C16.067 51.7992 18.167 49.1992 20.967 47.5659C21.5337 47.2326 22.167 46.9659 22.9003 46.6659L27.5003 44.9326C28.0337 46.4659 28.867 47.8659 29.9003 49.0659L26.1337 52.0659ZM40.0003 69.2659C37.9003 66.8659 36.667 63.7326 36.667 60.4992C36.667 59.8326 36.7337 59.1326 36.867 58.3326L37.6003 53.5992C38.367 53.7326 39.167 53.8326 40.0003 53.8326C40.8003 53.8326 41.6003 53.7326 42.367 53.5992L43.1337 58.3992C43.267 59.1326 43.3337 59.8659 43.3337 60.4992C43.3337 63.7659 42.1003 66.8659 40.0003 69.2659ZM62.3003 55.1325C60.0003 55.1325 57.7003 54.5326 55.667 53.3326C55.067 52.9992 54.5337 52.5992 54.0337 52.1992L50.2003 48.9992C51.2003 47.7992 52.0003 46.4659 52.5337 44.9659L57.1337 46.6992C57.867 46.9659 58.5003 47.2659 59.0337 47.5659C61.867 49.1992 63.9337 51.7992 64.967 54.8326C64.067 55.0659 63.167 55.1325 62.3003 55.1325Z" fill="#F7BDAF"/>
</svg>
